<svg width="100" height="100" viewBox="0 0 100 100" fill="none" xmlns="http://www.w3.org/2000/svg">
<path fill-rule="evenodd" clip-rule="evenodd" d="M100 37.931L50 0L0 37.931L50 75.8621L100 37.931Z" fill="#1890FF"/>
<path fill-rule="evenodd" clip-rule="evenodd" d="M100 37.931L50 0L0 37.931L50 75.8621L100 37.931Z" fill="white" fill-opacity="0.05"/>
<rect x="10.345" width="79.3103" height="70.6897" rx="2" fill="white"/>
<path d="M89.6553 68.6897V0L14.264 67.1966C12.8921 68.4194 13.757 70.6897 15.5947 70.6897H87.6553C88.7599 70.6897 89.6553 69.7942 89.6553 68.6897Z" fill="#001F2F" fill-opacity="0.05"/>
<path d="M58.6206 68.9655L99.9999 37.931L99.9999 100L58.6206 68.9655Z" fill="#1890FF"/>
<path d="M41.3794 68.9655L8.28218e-05 37.931L8.01086e-05 100L41.3794 68.9655Z" fill="#1890FF"/>
<path d="M58.6206 68.9655L99.9999 37.931L99.9999 100L58.6206 68.9655Z" fill="white" fill-opacity="0.2"/>
<path d="M41.3794 68.9655L8.28218e-05 37.931L8.01086e-05 100L41.3794 68.9655Z" fill="white" fill-opacity="0.2"/>
<path d="M50 62.069L100 100H0L50 62.069Z" fill="#1890FF"/>
<path d="M50 62.069L100 100H0L50 62.069Z" fill="white" fill-opacity="0.3"/>
<circle cx="49.9999" cy="32.2989" r="18.9655" fill="#1890FF"/>
<path fill-rule="evenodd" clip-rule="evenodd" d="M59.2625 27.4971C59.7244 28.0103 59.6828 28.8006 59.1696 29.2624L47.1715 40.0607L40.7774 33.5867C40.2923 33.0955 40.2972 32.3041 40.7884 31.819C41.2795 31.3339 42.071 31.3388 42.5561 31.8299L47.2731 36.6059L57.4972 27.4042C58.0103 26.9424 58.8007 26.984 59.2625 27.4971Z" fill="white"/>
</svg>
