<svg width="143" height="32" viewBox="0 0 143 32" fill="none" xmlns="http://www.w3.org/2000/svg">
<path d="M36.7583 32C42.3798 32 44.4107 27.5014 44.4107 23.2264V0H39.232V23.2264C39.232 24.9527 38.3689 27.0181 36.6427 27.0181C36.2111 27.0181 34.705 27.0181 33.6615 26.6478L33.1902 31.4278C34.503 31.8317 36.1188 32 36.7583 32Z" fill="black"/>
<path d="M142.956 25.0303L134.407 0H128.651L120.068 25.0303H125.723L127.439 19.6204H135.585L137.335 25.0303H142.956ZM131.478 5.07178L134.104 13.2881H128.887L131.478 5.07178Z" fill="black"/>
<path d="M118.34 25.0303L112.383 14.1982C115.378 13.522 117.815 10.1847 117.815 6.90492C117.815 3.0209 115.378 0 109.993 0H100.501V25.0303H105.786V14.1982H106.863L112.181 25.0303H118.34ZM109.286 4.63223C111.44 4.63223 112.205 6.04181 112.205 7.33648C112.205 8.63115 111.474 9.92583 109.151 9.92583H105.786V4.63223H109.286Z" fill="black"/>
<path d="M87.1509 14.201H91.3583H95.5656V9.49427H87.1509V4.63223H97.0466V0H81.8665V25.0303H97.0466V20.3981H87.1509V14.201Z" fill="black"/>
<path d="M55.2394 25.0303V0H50.0607V25.0303H55.2394Z" fill="black"/>
<path d="M59.555 0V4.977H66.1667V25.0303H71.8703V4.977H78.4821V0H59.555Z" fill="black"/>
<mask id="mask0_4_119" style="mask-type:alpha" maskUnits="userSpaceOnUse" x="0" y="0" width="17" height="26">
<path d="M0 0H16.0046V25.0303H0V0Z" fill="white"/>
</mask>
<g mask="url(#mask0_4_119)">
<path fill-rule="evenodd" clip-rule="evenodd" d="M4.14556 0L15.6001 11.5377C16.1418 12.0833 16.1394 12.9686 15.5949 13.5111L4.03847 25.0303L0 20.8783L7.31415 13.5111C7.85376 12.9675 7.85376 12.0865 7.31415 11.5429L0 4.17567L4.14556 0Z" fill="#0081BD"/>
</g>
<mask id="mask1_4_119" style="mask-type:alpha" maskUnits="userSpaceOnUse" x="12" y="0" width="17" height="26">
<path d="M12.0466 0H28.0512V25.0303H12.0466V0Z" fill="white"/>
</mask>
<g mask="url(#mask1_4_119)">
<path fill-rule="evenodd" clip-rule="evenodd" d="M16.1922 0L27.6467 11.5377C28.1884 12.0833 28.186 12.9686 27.6415 13.5111L16.0851 25.0303L12.0466 20.8783L19.3608 13.5111C19.9004 12.9675 19.9004 12.0865 19.3608 11.5429L12.0466 4.17567L16.1922 0Z" fill="#A4D6F3"/>
</g>
</svg>
